<?xml version="1.0" encoding="UTF-8"?>
<svg width="30px" height="30px" viewBox="0 0 30 30" version="1.1" xmlns="http://www.w3.org/2000/svg" xmlns:xlink="http://www.w3.org/1999/xlink">
    <!-- Generator: Sketch 51.1 (57501) - http://www.bohemiancoding.com/sketch -->
    <title>Menu Icon</title>
    <desc>Created with Sketch.</desc>
    <defs>
        <path d="M15,28 C13.3431458,28 12,26.6568542 12,25 C12,23.3431458 13.3431458,22 15,22 C16.6568542,22 18,23.3431458 18,25 C18,26.6568542 16.6568542,28 15,28 Z M15,18 C13.3431458,18 12,16.6568542 12,15 C12,13.3431458 13.3431458,12 15,12 C16.6568542,12 18,13.3431458 18,15 C18,16.6568542 16.6568542,18 15,18 Z M15,8 C13.3431458,8 12,6.65685425 12,5 C12,3.34314575 13.3431458,2 15,2 C16.6568542,2 18,3.34314575 18,5 C18,6.65685425 16.6568542,8 15,8 Z" id="path-1"></path>
    </defs>
    <g id="Menu-Icon" stroke="none" stroke-width="1" fill="none" fill-rule="evenodd">
        <g id="icon/menu/-30">
            <mask id="mask-2" fill="white">
                <use xlink:href="#path-1"></use>
            </mask>
            <use id="Shape" fill="#959595" fill-rule="nonzero" xlink:href="#path-1"></use>
            <g id="colors/icons/default-(grey50)" mask="url(#mask-2)" fill="#777677" fill-rule="evenodd">
                <rect id="Rectangle" x="0" y="0" width="30" height="30"></rect>
            </g>
        </g>
    </g>
</svg>