<?xml version="1.0" encoding="UTF-8"?>
<svg width="30px" height="30px" viewBox="0 0 30 30" version="1.1" xmlns="http://www.w3.org/2000/svg" xmlns:xlink="http://www.w3.org/1999/xlink">
    <!-- Generator: Sketch 47.1 (45422) - http://www.bohemiancoding.com/sketch -->
    <title>Artboard</title>
    <desc>Created with Sketch.</desc>
    <defs></defs>
    <g id="Page-1" stroke="none" stroke-width="1" fill="none" fill-rule="evenodd">
        <g id="Artboard" fill-rule="nonzero" fill="#212121">
            <g id="icon-product-download" transform="translate(4.000000, 1.000000)">
                <path d="M13,0 L0,0 L0,28 L22,28 L22,9 L13,0 Z M20,26 L2,26 L2,2 L12,2 L12,10 L20,10 L20,26 Z" id="Shape"></path>
                <path d="M4,13 L18,13 L18,14 L4,14 L4,13 Z M4,16 L18,16 L18,17 L4,17 L4,16 Z M4,19 L18,19 L18,20 L4,20 L4,19 Z M4,22 L13,22 L13,23 L4,23 L4,22 Z" id="Shape"></path>
            </g>
        </g>
    </g>
</svg>