<?xml version="1.0" encoding="UTF-8"?>
<svg width="100px" height="95px" viewBox="0 0 100 95" version="1.1" xmlns="http://www.w3.org/2000/svg" xmlns:xlink="http://www.w3.org/1999/xlink">
    <!-- Generator: Sketch 51.1 (57501) - http://www.bohemiancoding.com/sketch -->
    <title>Empty Wishlist Icon</title>
    <desc>Created with Sketch.</desc>
    <defs>
        <polygon id="path-1" points="0.000331578947 0.988 61.3424368 0.988 61.3424368 79.338672 0.000331578947 79.338672"></polygon>
        <polygon id="path-3" points="0.998 0 60 0 60 93 0.998 93"></polygon>
    </defs>
    <g id="Empty-Wishlist-Icon" stroke="none" stroke-width="1" fill="none" fill-rule="evenodd" opacity="0.0840959821">
        <g id="Group-7">
            <g id="Group-3">
                <mask id="mask-2" fill="white">
                    <use xlink:href="#path-1"></use>
                </mask>
                <g id="Clip-2"></g>
                <path d="M51.7266474,61.410672 L37.8003316,50.125992 C36.8055947,49.458672 36.4740158,48.465992 36.4740158,47.134672 C36.4740158,46.138672 37.1371737,45.145992 38.1319105,44.478672 L61.3424368,32.858672 L49.7371737,14.266672 C45.0950684,6.298672 36.4740158,0.986672 26.8582263,0.986672 C11.9371737,1.318672 0.000331578947,13.605992 0.000331578947,28.545992 C0.000331578947,36.178672 2.98454211,42.818672 7.62664737,47.798672 C13.5950684,54.109992 26.5266474,68.385992 36.4740158,79.338672 L51.7266474,61.410672 Z" id="Fill-1" fill="#000000" mask="url(#mask-2)"></path>
            </g>
            <g id="Group-6" transform="translate(40.000000, 2.000000)">
                <mask id="mask-4" fill="white">
                    <use xlink:href="#path-3"></use>
                </mask>
                <g id="Clip-5"></g>
                <path d="M33.0013333,0 C25.668,0 19.3313333,2.98928571 14.3313333,7.63928571 L29.3313333,31.5535714 C30.0013333,32.2178571 30.0013333,33.2142857 30.0013333,34.2107143 C29.668,35.2071429 29.0013333,35.8714286 28.3346667,36.2035714 L6.33466667,47.1642857 L19.0013333,57.1285714 C19.668,57.7928571 20.0013333,58.4571429 20.3313333,59.4535714 C20.3313333,60.45 20.0013333,61.1142857 19.668,61.7785714 L0.998,83.0357143 C6.33466667,89.0142857 10.0013333,93 10.0013333,93 C10.0013333,93 41.3346667,57.7928571 52.3346667,46.5 C56.998,41.5178571 60.0013333,34.5428571 60.0013333,27.2357143 C60.0013333,12.2892857 48.0013333,0 33.0013333,0" id="Fill-4" fill="#000000" mask="url(#mask-4)"></path>
            </g>
        </g>
    </g>
</svg>